<svg width="78" height="75" viewBox="0 0 78 75" fill="none" xmlns="http://www.w3.org/2000/svg">
<path d="M57.2344 75H20.1094C9.02137 75 0 66.252 0 55.5V19.5C0 8.748 9.02137 0 20.1094 0H57.2344C68.3224 0 77.3438 8.748 77.3438 19.5V55.5C77.3438 66.252 68.3224 75 57.2344 75ZM20.1094 3C10.7276 3 3.09375 10.4025 3.09375 19.5V55.5C3.09375 64.5975 10.7276 72 20.1094 72H57.2344C66.6162 72 74.25 64.5975 74.25 55.5V19.5C74.25 10.4025 66.6162 3 57.2344 3H20.1094Z" fill="url(#paint0_linear_3_8)"/>
<path d="M38.6719 57C27.5839 57 18.5625 48.252 18.5625 37.5C18.5625 26.748 27.5839 18 38.6719 18C49.7599 18 58.7812 26.748 58.7812 37.5C58.7812 48.252 49.7599 57 38.6719 57ZM38.6719 24C30.9963 24 24.75 30.057 24.75 37.5C24.75 44.9445 30.9963 51 38.6719 51C46.349 51 52.5938 44.9445 52.5938 37.5C52.5938 30.057 46.349 24 38.6719 24Z" fill="url(#paint1_linear_3_8)"/>
<path d="M60.3281 12C59.0974 12 57.917 12.4741 57.0467 13.318C56.1764 14.1619 55.6875 15.3065 55.6875 16.5C55.6875 17.6935 56.1764 18.8381 57.0467 19.682C57.917 20.5259 59.0974 21 60.3281 21C61.5589 21 62.7393 20.5259 63.6095 19.682C64.4798 18.8381 64.9688 17.6935 64.9688 16.5C64.9688 15.3065 64.4798 14.1619 63.6095 13.318C62.7393 12.4741 61.5589 12 60.3281 12Z" fill="url(#paint2_linear_3_8)"/>
<defs>
<linearGradient id="paint0_linear_3_8" x1="38.6719" y1="-0.4995" x2="38.6719" y2="76.308" gradientUnits="userSpaceOnUse">
<stop stop-color="#FF1A1A"/>
<stop offset="0.72" stop-color="#868587"/>
<stop offset="0.95" stop-color="#C34F50"/>
</linearGradient>
<linearGradient id="paint1_linear_3_8" x1="38.6719" y1="16.7505" x2="38.6719" y2="58.0185" gradientUnits="userSpaceOnUse">
<stop stop-color="#B2CBDA"/>
<stop offset="1" stop-color="#E74848"/>
</linearGradient>
<linearGradient id="paint2_linear_3_8" x1="60.3281" y1="8.625" x2="60.3281" y2="24.0735" gradientUnits="userSpaceOnUse">
<stop stop-color="#FF1A1A"/>
<stop offset="1" stop-color="#E6ABFF"/>
</linearGradient>
</defs>
</svg>
