<svg width="155" height="122" viewBox="0 0 55 12" fill="none" xmlns="http://www.w3.org/2000/svg">
<path fill-rule="evenodd" clip-rule="evenodd" d="M53.5548 9.73629C53.1532 9.73629 52.8994 9.66327 52.7168 9.4442C52.5708 9.26165 52.4977 8.96953 52.4977 8.53314V5.90785H54.2833L54.0642 3.9397H52.5325V2.15412V0.695435C52.5325 0.695435 51.8405 0.731932 51.6215 0.768443C50.4548 0.841465 49.6898 1.643 49.6898 2.51927V4.05096L48.5963 4.12402V5.94605H49.6898V8.97129C49.6898 9.88233 49.9454 10.6125 50.4183 11.1585C50.893 11.7061 51.6215 11.96 52.569 11.96C53.0437 11.96 53.407 11.9235 53.7356 11.887C54.2468 11.7774 54.6101 11.3393 54.6101 10.7934V9.48071C54.285 9.62675 53.9199 9.73629 53.5548 9.73629Z" fill="white"/>
<path fill-rule="evenodd" clip-rule="evenodd" d="M24.9736 9.99189C25.2657 9.84585 25.4847 9.69979 25.629 9.48073V8.78874C25.1544 8.46014 24.645 8.31407 24.0608 8.31407C23.6957 8.31407 23.4053 8.3871 23.1863 8.56966C22.9672 8.7157 22.8942 8.9713 22.8942 9.26165C22.8942 9.552 23.0037 9.77282 23.1863 9.95364C23.3688 10.0997 23.6609 10.2092 24.0608 10.2092C24.3529 10.1744 24.6815 10.1014 24.9736 9.99189ZM20.853 11.2315C20.2706 10.7569 19.942 10.1014 19.942 9.2634C19.942 8.38887 20.2341 7.73164 20.8165 7.25874C21.399 6.7841 22.2022 6.5668 23.2958 6.5668C23.6974 6.5668 24.1338 6.60329 24.5355 6.71282C24.9371 6.82235 25.3004 6.93187 25.629 7.07792V6.9319C25.629 6.09388 24.9371 5.69224 23.5879 5.69224C22.6404 5.69224 22.0562 5.76529 21.2912 6.1304C21.2912 6.1304 21.1816 5.3654 21.1451 5.07331C21.0721 4.48913 21.5467 4.05276 22.3117 3.90671C22.8594 3.79718 23.4418 3.76064 24.0608 3.76064C25.483 3.76064 26.5766 4.05272 27.3051 4.63515C28.0335 5.21759 28.3987 6.02084 28.3987 7.04141V10.5778C28.3987 11.5253 28.0701 11.7444 27.2686 11.7444H25.8099L25.7368 11.0889C25.4447 11.381 25.0814 11.6001 24.6432 11.7444C24.2051 11.8905 23.6957 12 23.148 12C22.2387 11.9235 21.4372 11.7044 20.853 11.2315Z" fill="white"/>
<path fill-rule="evenodd" clip-rule="evenodd" d="M44.733 9.99189C45.0251 9.84585 45.2442 9.69979 45.3885 9.48073V8.78874C44.9138 8.46014 44.4044 8.31407 43.8202 8.31407C43.4551 8.31407 43.1648 8.3871 42.9457 8.56966C42.7266 8.7157 42.6536 8.9713 42.6536 9.26165C42.6536 9.552 42.7632 9.77282 42.9457 9.95364C43.1283 10.0997 43.4204 10.2092 43.8202 10.2092C44.1123 10.1744 44.4409 10.1014 44.733 9.99189ZM40.6125 11.2315C40.03 10.7569 39.7014 10.1014 39.7014 9.2634C39.7014 8.38887 39.9935 7.73164 40.576 7.25874C41.1584 6.7841 41.9617 6.5668 43.0553 6.5668C43.4569 6.5668 43.8933 6.60329 44.2949 6.71282C44.6965 6.82235 45.0599 6.93187 45.3885 7.07792V6.9319C45.3885 6.09388 44.6965 5.69224 43.3473 5.69224C42.3998 5.69224 41.8156 5.76529 41.0506 6.1304C41.0506 6.1304 40.9411 5.3654 40.9046 5.07331C40.8316 4.48913 41.3062 4.05276 42.0712 3.90671C42.6189 3.79718 43.2013 3.76064 43.8202 3.76064C45.2424 3.76064 46.336 4.05272 47.0645 4.63515C47.793 5.21759 48.1581 6.02084 48.1581 7.04141V10.5778C48.1581 11.5253 47.8295 11.7444 47.028 11.7444H45.5693L45.4963 11.0889C45.2042 11.381 44.8408 11.6001 44.4027 11.7444C43.9646 11.8905 43.4551 12 42.9075 12C41.9982 11.9235 41.1967 11.7044 40.6125 11.2315Z" fill="white"/>
<path fill-rule="evenodd" clip-rule="evenodd" d="M4.95853 9.73629C4.55691 9.73629 4.30308 9.66327 4.12053 9.4442C3.97448 9.26165 3.90145 8.96953 3.90145 8.53314V5.90785H5.68703L5.46795 3.9397H3.93623V2.15412V0.695435C3.93623 0.695435 3.24425 0.731932 3.02519 0.768443C1.85857 0.841465 1.09359 1.643 1.09359 2.51927V4.05096L0 4.12402V5.94605H1.09359V8.97129C1.09359 9.88233 1.34915 10.6125 1.82206 11.1585C2.2967 11.7061 3.02518 11.96 3.97273 11.96C4.44738 11.96 4.81076 11.9235 5.13936 11.887C5.65051 11.7774 6.01389 11.3393 6.01389 10.7934V9.48071C5.65226 9.62675 5.28713 9.73629 4.95853 9.73629Z" fill="white"/>
<path fill-rule="evenodd" clip-rule="evenodd" d="M11.5566 9.99189C11.8487 9.84585 12.0678 9.69979 12.2121 9.48073V8.78874C11.7375 8.46014 11.228 8.31407 10.6439 8.31407C10.2788 8.31407 9.9884 8.3871 9.76933 8.56966C9.55027 8.7157 9.47725 8.9713 9.47725 9.26165C9.47725 9.552 9.58678 9.77282 9.76933 9.95364C9.95189 10.0997 10.244 10.2092 10.6439 10.2092C10.9742 10.1744 11.2663 10.1014 11.5566 9.99189ZM7.47437 11.2315C6.89193 10.7569 6.56332 10.1014 6.56332 9.2634C6.56332 8.38887 6.85542 7.73164 7.43786 7.25874C8.0203 6.7841 8.82353 6.5668 9.91713 6.5668C10.3187 6.5668 10.7551 6.60329 11.1568 6.71282C11.5584 6.82235 11.9218 6.93187 12.2504 7.07792V6.9319C12.2504 6.09388 11.5584 5.69224 10.2092 5.69224C9.26167 5.69224 8.67749 5.76529 7.9125 6.1304C7.9125 6.1304 7.80296 5.3654 7.76645 5.07331C7.69343 4.48913 8.16808 4.05276 8.93308 3.90671C9.48074 3.79718 10.0632 3.76064 10.6839 3.76064C12.106 3.76064 13.1997 4.05272 13.9281 4.63515C14.6566 5.21759 15.0217 6.02084 15.0217 7.04141V10.5778C15.0217 11.5253 14.6931 11.7444 13.8916 11.7444H12.4329L12.3599 11.0889C12.0678 11.381 11.7044 11.6001 11.2663 11.7444C10.8282 11.8905 10.3188 12 9.77108 12C8.82353 11.9235 8.0568 11.7044 7.47437 11.2315Z" fill="white"/>
<path fill-rule="evenodd" clip-rule="evenodd" d="M18.9215 11.6679V0.00178528C18.9215 0.00178528 18.266 0.0382828 18.0104 0.0747938C16.8438 0.147816 16.0788 0.949301 16.0788 1.82557V11.6679H18.9215Z" fill="white"/>
<path fill-rule="evenodd" clip-rule="evenodd" d="M35.7287 9.22513C35.3636 9.55373 34.8907 9.7363 34.343 9.7363C33.9049 9.7363 33.5415 9.62677 33.1764 9.4077C32.8478 9.18864 32.594 8.89652 32.4479 8.49664V7.11096C32.594 6.74585 32.8496 6.45552 33.1764 6.19994C33.505 5.98088 33.9049 5.8713 34.343 5.8713C34.9272 5.8713 35.4001 6.05387 35.7287 6.38246C36.0938 6.71106 36.2764 7.18396 36.2764 7.76814C36.2746 8.4236 36.0921 8.89827 35.7287 9.22513ZM38.6444 5.68878C38.3158 5.06983 37.8064 4.55864 37.1857 4.23004C36.5667 3.90144 35.8365 3.71893 35.035 3.71893C34.5239 3.71893 34.0144 3.79191 33.5763 3.93795C33.1017 4.084 32.7383 4.30309 32.4097 4.55693V0C32.4097 0 31.7177 0.0364975 31.4986 0.0730085C30.332 0.146031 29.567 0.947569 29.567 1.82383V11.6661H32.2289L32.3019 10.9011C33.0304 11.5931 33.9432 11.9217 35.0367 11.9217C35.8383 11.9217 36.5685 11.7392 37.1874 11.4106C37.8064 11.082 38.281 10.6091 38.6461 9.98838C38.9747 9.36943 39.1573 8.63921 39.1573 7.8377C39.1573 7.0362 39.0095 6.30947 38.6444 5.68878Z" fill="white"/>
</svg>
